<svg id="Capa_1" enable-background="new 0 0 512 512" height="512" viewBox="0 0 512 512" width="512" xmlns="http://www.w3.org/2000/svg"><g><path d="m481.249 325.37v135.53c0 30.091-25.08 51.1-53.95 51.1h-11.1l-47.46-21.6v-155.06l10.32-9.97z" fill="#cfcfdd"/><path d="m428.57 512h-49.51-189.53l-73.35-221.06 73.35-290.94h189.53v325.37l-.01 135.53c0 27.224 22.289 50.281 49.52 51.1z" fill="#e2e2eb"/><path d="m512 32.979c0 5.89-2.05 11.961-5.35 17.351l-23.14 37.77-.08-.06-11.329 5.245-16.408-10.053-.043-12.212v-41.892l40.81-23.848c9.72 6.31 15.54 16.829 15.54 27.699z" fill="#0d90bc"/><path d="m496.46 5.28-40.81 65.74-9.043 4.997-18.772-11.495-.795-11.022 8.54-13.94 14.59-23.82c9.521-15.52 29.866-20.349 45.54-10.94.255.153.5.31.75.48z" fill="#0fa8dc"/><path d="m0 0h189.53v512h-189.53z" fill="#f5f5f8"/><g><g><path d="m213.42 388.49v30h-23.89l-18.312-15 18.312-15z" fill="#04303e"/><path d="m66.36 388.49h123.17v30h-123.17z" fill="#07485e"/></g></g><g><g><path d="m213.42 323.66v30h-23.89l-16.275-12.617 16.275-17.383z" fill="#edbe00"/><path d="m66.36 323.66h123.17v30h-123.17z" fill="#fc0"/></g></g><g><g><path d="m213.42 260.94v30h-23.89l-16.275-15.344 16.275-14.656z" fill="#edbe00"/><path d="m66.36 260.94h123.17v30h-123.17z" fill="#fc0"/></g></g><g><g><path d="m267.55 198.22v30h-78.02l-16.275-15.518 16.275-14.482z" fill="#edbe00"/><path d="m66.36 198.22h123.17v30h-123.17z" fill="#fc0"/></g></g><circle cx="121.325" cy="103.34" fill="#ff9e22" r="38.923"/><path d="m319.6 354.92-62.27 35.61 101.457-205.317 96.863-114.193 27.78 17.02.08.06z" fill="#04303e"/><path d="m455.65 71.02-198.32 319.51 5.63-70.21 164.08-266.82z" fill="#07485e"/></g></svg>